<?xml version="1.0" encoding="utf-8"?>
<!-- Generator: Adobe Illustrator 24.1.2, SVG Export Plug-In . SVG Version: 6.00 Build 0)  -->
<svg version="1.1" id="Layer_1" xmlns="http://www.w3.org/2000/svg" xmlns:xlink="http://www.w3.org/1999/xlink" x="0px" y="0px"
	 viewBox="0 0 595.28 841.89" style="enable-background:new 0 0 595.28 841.89;" xml:space="preserve">
<style type="text/css">
	.st0{fill:#FF3333;}
</style>
<g>
	<path class="st0" d="M299.98,215.48c6.29,0.74,12.6,1.33,18.85,2.26c30.72,4.59,58.49,16.33,83.07,35.24
		c38.19,29.39,62.28,67.88,69.69,115.46c10.08,64.75-9.15,120.36-56.94,165.37c-28.57,26.91-62.95,42.51-101.95,46.83
		c-54.33,6.02-102.48-9-143.5-45.22c-31.95-28.21-51.45-63.73-58.73-105.75c-13.97-80.62,27.65-160.87,101.6-196.25
		c21.34-10.21,43.83-16.03,67.45-17.48c0.88-0.05,1.74-0.31,2.61-0.47C288.07,215.48,294.02,215.48,299.98,215.48z M291.17,243.68
		c-85.42-0.15-155,69.25-155.23,154.85c-0.23,85.55,69.23,155.18,155,155.38c85.36,0.2,155.06-69.32,155.23-154.85
		C446.33,313.45,376.88,243.83,291.17,243.68z"/>
	<path class="st0" d="M406.75,305.01c-3.6,10.77-7.01,20.95-10.46,31.28c-3.41-0.42-6.65-0.73-9.86-1.25
		c-1.71-0.28-2.49,0.31-3.05,1.89c-1.34,3.73-2.92,7.36-4.24,11.1c-0.56,1.58-1.38,2.07-3.02,2.06c-7.81-0.08-15.63-0.04-23.55-0.04
		c0,9.44,0,18.21,0,27.28c6.32,0.46,12.41,0.9,18.81,1.36c-1.21,6.89-2.34,13.59-3.64,20.26c-0.11,0.58-1.37,1.3-2.12,1.33
		c-3.35,0.14-6.71,0.06-10.59,0.06c2.88,35.53,5.72,70.63,8.59,106.1c-9.24,1.01-18.34,2.01-27.72,3.04
		c-2.2-36.28-4.39-72.27-6.61-108.84c-26.12,0-52.04,0-78.36,0c-1.91,35.56-3.83,71.55-5.78,107.86c-9.42-1.13-18.52-2.22-28-3.36
		c2.83-34.44,5.65-68.66,8.48-103.02c-3.47-0.83-6.64-1.54-9.78-2.38c-0.78-0.21-1.96-0.69-2.09-1.24
		c-1.6-6.91-3.04-13.85-4.63-21.29c6.6,0,12.71,0,18.82,0c0-8.79,0-17.16,0-25.76c-6.73-0.31-13.14-0.85-19.55-0.79
		c-4,0.03-6.47-1.06-7.6-5.11c-0.69-2.45-2.23-4.66-3.03-7.09c-0.73-2.25-2.02-2.46-4.02-2.08c-2.68,0.52-6.02,1.91-7.94,0.86
		c-1.73-0.95-1.96-4.68-2.79-7.21c-2.51-7.71-4.98-15.43-7.67-23.81C252.65,319.04,329.51,319.78,406.75,305.01z M329.61,351.24
		c-7.9,0-15.41,0-23.09,0c-0.88,8.48-1.73,16.72-2.58,24.96c8.79,0,17.25,0,25.67,0C329.61,367.69,329.61,359.59,329.61,351.24z
		 M273.89,352.05c-7.97,0-15.54,0-23.41,0c0.88,8.53,1.73,16.75,2.57,24.9c7.58,0,14.94,0,22.66,0
		C275.08,368.42,274.49,360.28,273.89,352.05z"/>
</g>
</svg>
